<svg xmlns="http://www.w3.org/2000/svg" viewBox="0 0 651.57 586.75"><defs><style>.cls-1{fill:#fff;}.cls-1,.cls-2{stroke:#fff;stroke-miterlimit:10;stroke-width:12px;}.cls-2{fill:none;}</style></defs><title>Logo 6 i</title><g id="Layer_2" data-name="Layer 2"><g id="Layer_1-2" data-name="Layer 1"><polygon class="cls-1" points="567.58 580.75 367.97 6 354.23 6 212.78 6 208.05 6 8.44 580.75 154.62 580.75 283.51 209.64 412.39 580.75 567.58 580.75"/><polygon class="cls-2" points="367.97 6 212.78 6 412.39 580.75 567.58 580.75 367.97 6"/><polygon class="cls-2" points="154.62 580.75 8.44 580.75 208.05 6 354.23 6 154.62 580.75"/><polygon class="cls-2" points="575.32 580.75 644.71 66 639.97 66 498.52 66 493.78 66 25.17 580.75 171.36 580.75 449.24 282.64 429.13 580.75 575.32 580.75"/></g></g></svg>