<svg xmlns="http://www.w3.org/2000/svg" viewBox="0 0 567.01 586.75"><defs><style>.cls-1{fill:none;stroke:#231f20;stroke-miterlimit:10;stroke-width:12px;}</style></defs><title>Logo 4</title><g id="Layer_2" data-name="Layer 2"><g id="Layer_1-2" data-name="Layer 1"><polygon points="385.99 83.81 459.08 294.28 385.99 504.72 312.89 294.27 313.17 293.5 385.99 83.81"/><polygon points="181.66 81.95 254.76 292.4 181.66 502.86 108.58 292.41 181.66 81.95"/><line class="cls-1" x1="108.58" y1="292.41" x2="181.67" y2="502.86"/><line class="cls-1" x1="254.77" y1="292.4" x2="181.67" y2="81.95"/><polyline class="cls-1" points="385.99 504.73 385.99 504.72 459.08 294.28"/><polyline class="cls-1" points="385.99 83.81 313.17 293.5 312.89 294.27"/><polygon class="cls-1" points="385.99 504.72 412.39 580.75 558.58 580.75 459.08 294.28 385.99 83.81 358.96 6 354.23 6 212.78 6 208.04 6 181.66 81.95 108.58 292.41 8.44 580.75 154.62 580.75 181.66 502.86 254.76 292.4 283.5 209.64 312.89 294.27 385.99 504.72"/></g></g></svg>